# xmcd
#
# Track frame offsets:
#	150
#	14737
#	31847
#	48470
#	62465
#	81025
#	93617
#	111717
#	126805
#	142055
#	152805
#
# Disc length: 2268 seconds
#
# Revision: 1
# Processed by: cddbd v1.4PL0 Copyright (c) Steve Scherf et al.
# Submitted via: audiograbber 1.81.03
#
DISCID=9908da0b
DTITLE=The Warrathas - Only Game In Town
DYEAR=1991
DGENRE=Country
TTITLE0=Hands Of My Heart
TTITLE1=Maureen
TTITLE2=Only Game In Town
TTITLE3=Drivin' Wheel
TTITLE4=St Peters Rendezvous
TTITLE5=Ringing Of The Bell
TTITLE6=Burned All Of My Dreams
TTITLE7=Brunos Last Ride (Instrumental)
TTITLE8=My Friends Say Fool
TTITLE9=Walk On By
TTITLE10=Nothin' Ever Happens Round Here
EXTD=
EXTT0=
EXTT1=
EXTT2=
EXTT3=
EXTT4=
EXTT5=
EXTT6=
EXTT7=
EXTT8=
EXTT9=
EXTT10=
PLAYORDER=
